<svg width="26" height="26" viewBox="0 0 26 26" fill="none" xmlns="http://www.w3.org/2000/svg">
<path d="M8.81141 12.5164L8.45702 12.8708L8.81224 13.2244L10.7645 15.1675L8.82224 17.1098L8.46869 17.4633L8.82224 17.8169L10.3497 19.3444L10.7033 19.6979L11.0568 19.3444L13 17.4013L14.9431 19.3444L15.2966 19.6979L15.6502 19.3444L17.1777 17.8169L17.5312 17.4633L17.1777 17.1098L15.2346 15.1667L17.1777 13.2236L17.5312 12.87L17.1777 12.5164L15.6502 10.9889L15.2966 10.6354L14.9431 10.9889L12.9991 12.9329L11.0452 10.9881L10.6916 10.6362L10.3389 10.9889L8.81141 12.5164ZM16.4381 4.68689L16.5845 4.83333H16.7916H20.0833V6H5.91663V4.83333H9.20829H9.4154L9.56185 4.68689L10.4987 3.75H15.5012L16.4381 4.68689ZM8.66663 22.25C7.7511 22.25 6.99996 21.4989 6.99996 20.5833V8.08333H19V20.5833C19 21.4989 18.2488 22.25 17.3333 22.25H8.66663Z" fill="#F44336" stroke="#F44336"/>
</svg>
