<svg width="24" height="20" viewBox="0 0 24 20" fill="none" xmlns="http://www.w3.org/2000/svg">
<path d="M18.4242 4.7L24 10.02L18.4242 15.3V11.76H10.0808V8.24H18.4242V4.7ZM15.0707 14.94L17.2121 17.08C15.1111 19.0267 12.835 20 10.3838 20C7.46128 20 5 19.0433 3 17.13C1 15.2167 0 12.8267 0 9.96C0 8.16 0.457912 6.49333 1.37374 4.96C2.28956 3.42667 3.52525 2.21667 5.08081 1.33C6.63636 0.443333 8.32323 0 10.1414 0C12.6195 0 14.9697 0.986667 17.1919 2.96L15.0707 5.08C13.5354 3.69333 11.899 3 10.1616 3C8.15488 3 6.46128 3.69333 5.08081 5.08C3.70034 6.46667 3.0101 8.16 3.0101 10.16C3.0101 12.0267 3.72054 13.6333 5.14141 14.98C6.56229 16.3267 8.22896 17 10.1414 17C11.9057 17 13.5488 16.3133 15.0707 14.94Z" fill="#F44336"/>
</svg>
