<svg width="120" height="120" viewBox="0 0 120 120" fill="none" xmlns="http://www.w3.org/2000/svg">
<circle cx="60" cy="60" r="60" fill="white"/>
<g filter="url(#filter0_d)">
<path d="M60 60C66.9062 60 72.5 54.4062 72.5 47.5C72.5 40.5938 66.9062 35 60 35C53.0938 35 47.5 40.5938 47.5 47.5C47.5 54.4062 53.0938 60 60 60ZM60 66.25C51.6562 66.25 35 70.4375 35 78.75V80C35 82.7614 37.2386 85 40 85H80C82.7614 85 85 82.7614 85 80V78.75C85 70.4375 68.3438 66.25 60 66.25Z" fill="black"/>
<path d="M72 47.5C72 54.1301 66.6301 59.5 60 59.5C53.3699 59.5 48 54.1301 48 47.5C48 40.8699 53.3699 35.5 60 35.5C66.6301 35.5 72 40.8699 72 47.5ZM35.5 78.75C35.5 76.8555 36.4451 75.1591 38.072 73.6575C39.7024 72.1527 41.984 70.8777 44.557 69.847C49.7038 67.7851 55.8906 66.75 60 66.75C64.1094 66.75 70.2962 67.7851 75.443 69.847C78.016 70.8777 80.2976 72.1527 81.928 73.6575C83.5549 75.1591 84.5 76.8555 84.5 78.75V80C84.5 82.4853 82.4853 84.5 80 84.5H40C37.5147 84.5 35.5 82.4853 35.5 80V78.75Z" stroke="black"/>
</g>
<defs>
<filter id="filter0_d" x="31" y="35" width="58" height="58" filterUnits="userSpaceOnUse" color-interpolation-filters="sRGB">
<feFlood flood-opacity="0" result="BackgroundImageFix"/>
<feColorMatrix in="SourceAlpha" type="matrix" values="0 0 0 0 0 0 0 0 0 0 0 0 0 0 0 0 0 0 127 0" result="hardAlpha"/>
<feOffset dy="4"/>
<feGaussianBlur stdDeviation="2"/>
<feComposite in2="hardAlpha" operator="out"/>
<feColorMatrix type="matrix" values="0 0 0 0 0 0 0 0 0 0 0 0 0 0 0 0 0 0 0.25 0"/>
<feBlend mode="normal" in2="BackgroundImageFix" result="effect1_dropShadow"/>
<feBlend mode="normal" in="SourceGraphic" in2="effect1_dropShadow" result="shape"/>
</filter>
</defs>
</svg>
